<svg id="Layer_5" enable-background="new 0 0 64 64" height="512" viewBox="0 0 64 64" width="512" xmlns="http://www.w3.org/2000/svg" xmlns:xlink="http://www.w3.org/1999/xlink"><linearGradient id="SVGID_1_" gradientUnits="userSpaceOnUse" x1="32" x2="32" y1="60" y2="4"><stop offset="0" stop-color="#9f2fff"/><stop offset="1" stop-color="#0bb1d3"/></linearGradient><path d="m60 4h-56c-1.654 0-3 1.346-3 3v2c0 1.302.839 2.402 2 2.816v48.184h58v-48.184c1.161-.414 2-1.514 2-2.816v-2c0-1.654-1.346-3-3-3zm-1 8v26h-54v-26zm-48 33c0-.551.449-1 1-1s1 .449 1 1-.449 1-1 1-1-.449-1-1zm8 0c0-.551.449-1 1-1s1 .449 1 1-.449 1-1 1-1-.449-1-1zm2 13v-10.184c1.161-.414 2-1.514 2-2.816 0-1.654-1.346-3-3-3s-3 1.346-3 3c0 1.302.839 2.402 2 2.816v10.184h-6v-10.184c1.161-.414 2-1.514 2-2.816 0-1.654-1.346-3-3-3s-3 1.346-3 3c0 1.302.839 2.402 2 2.816v10.184h-6v-18h54v18zm40-49c0 .551-.449 1-1 1h-56c-.551 0-1-.449-1-1v-2c0-.551.449-1 1-1h56c.551 0 1 .449 1 1zm-52 27h30c1.103 0 2-.897 2-2v-18c0-1.103-.897-2-2-2h-30c-1.103 0-2 .897-2 2v18c0 1.103.897 2 2 2zm0-2v-6h4.382l2.75 5.499 3.077-8.207 2.871 4.785 3.819-7.638 3.879 9.697 4.757-7.136h4.466l.001 9zm30-18 .001 7h-5.536l-3.242 4.864-4.121-10.303-4.181 8.362-3.129-5.215-2.923 7.793-1.251-2.501h-5.618v-10zm15 4c1.654 0 3-1.346 3-3s-1.346-3-3-3-3 1.346-3 3 1.346 3 3 3zm0-4c.551 0 1 .449 1 1s-.449 1-1 1-1-.449-1-1 .449-1 1-1zm0 12c1.654 0 3-1.346 3-3s-1.346-3-3-3-3 1.346-3 3 1.346 3 3 3zm0-4c.551 0 1 .449 1 1s-.449 1-1 1-1-.449-1-1 .449-1 1-1zm0 12c1.654 0 3-1.346 3-3s-1.346-3-3-3-3 1.346-3 3 1.346 3 3 3zm0-4c.551 0 1 .449 1 1s-.449 1-1 1-1-.449-1-1 .449-1 1-1zm-8-12c1.654 0 3-1.346 3-3s-1.346-3-3-3-3 1.346-3 3 1.346 3 3 3zm0-4c.551 0 1 .449 1 1s-.449 1-1 1-1-.449-1-1 .449-1 1-1zm0 12c1.654 0 3-1.346 3-3s-1.346-3-3-3-3 1.346-3 3 1.346 3 3 3zm0-4c.551 0 1 .449 1 1s-.449 1-1 1-1-.449-1-1 .449-1 1-1zm0 12c1.654 0 3-1.346 3-3s-1.346-3-3-3-3 1.346-3 3 1.346 3 3 3zm0-4c.551 0 1 .449 1 1s-.449 1-1 1-1-.449-1-1 .449-1 1-1zm-19 24h30v-14h-30zm2-12h26v10h-26zm21 2c-1.654 0-3 1.346-3 3s1.346 3 3 3 3-1.346 3-3-1.346-3-3-3zm0 4c-.551 0-1-.449-1-1s.449-1 1-1 1 .449 1 1-.449 1-1 1zm-8-4c-1.654 0-3 1.346-3 3s1.346 3 3 3 3-1.346 3-3-1.346-3-3-3zm0 4c-.551 0-1-.449-1-1s.449-1 1-1 1 .449 1 1-.449 1-1 1zm-8-4c-1.654 0-3 1.346-3 3s1.346 3 3 3 3-1.346 3-3-1.346-3-3-3zm0 4c-.551 0-1-.449-1-1s.449-1 1-1 1 .449 1 1-.449 1-1 1z" fill="url(#SVGID_1_)"/></svg>