<?xml version="1.0" encoding="UTF-8"?>
<svg xmlns="http://www.w3.org/2000/svg" xmlns:xlink="http://www.w3.org/1999/xlink" viewBox="0 0 512 512" width="512" height="512"><defs><linearGradient id="linear-gradient" x1="74.894" y1="437.106" x2="461.106" y2="50.894" gradientUnits="userSpaceOnUse"><stop offset="0" stop-color="#41dfd0"/><stop offset="1" stop-color="#ee83ef"/></linearGradient></defs><g id="gradient"><path d="M276.226,367.054a8,8,0,0,0,8.212-.4L306.422,352H345a15.017,15.017,0,0,0,15-15V303a15.017,15.017,0,0,0-15-15H287a15.017,15.017,0,0,0-15,15v57A8,8,0,0,0,276.226,367.054ZM288,304h56v32H304a8.005,8.005,0,0,0-4.438,1.344L288,345.052ZM496,135A119.135,119.135,0,0,0,377,16H146a26.029,26.029,0,0,0-26,26V210.942a119.008,119.008,0,0,0,0,236.116V470a26.029,26.029,0,0,0,26,26H366a26.029,26.029,0,0,0,26-26V253.053a118.261,118.261,0,0,0,18.083-3.742A13.989,13.989,0,0,0,422,256h50a14.015,14.015,0,0,0,14-14V216a8,8,0,0,0,8-8V182a13.945,13.945,0,0,0-3.96-9.736A118.589,118.589,0,0,0,496,135Zm-88,98.255a103.206,103.206,0,0,1-72-3.777v-11.3A19.343,19.343,0,0,1,354.14,200l45.86.1V208a8,8,0,0,0,8,8ZM281.559,64A118.935,118.935,0,0,0,376,253.987V432H194.543A118.974,118.974,0,0,0,136,210.013V64Zm157.086,73.959.793.793A29.2,29.2,0,0,1,446.707,168H416V128a7.994,7.994,0,0,0-2.021-5.314l-16-18A8,8,0,0,0,392,102H344a8,8,0,0,1,0-16h64.119A15.9,15.9,0,0,1,424,101.881v.723A49.672,49.672,0,0,0,438.645,137.959ZM352,118h36.407L400,131.042V184H376V166a8,8,0,0,0-8-8h-4a12.013,12.013,0,0,1-12-12Zm64,66h11v16H416Zm27,0h7.331v16H443Zm23.331,0H478v16H466.331ZM480,135a102.607,102.607,0,0,1-5.4,33H463.171a45.15,45.15,0,0,0-12.419-40.562l-.793-.793A33.777,33.777,0,0,1,440,102.6v-.723A31.917,31.917,0,0,0,408.119,70H344a24,24,0,0,0-8,46.624V146a28.044,28.044,0,0,0,24,27.715v10.3L354.017,184c-.082,0-.189,0-.285,0-17.868.6-33,15.7-33.725,33.671,0,.108-.007.216-.007.324v2.746A102.984,102.984,0,1,1,480,135ZM146,32H317.457A119.684,119.684,0,0,0,295.9,48H136V42A10.011,10.011,0,0,1,146,32ZM135,226a102.971,102.971,0,0,1,57,188.746V410c0-.108,0-.217-.007-.325-.729-17.967-15.858-33.071-33.724-33.67-.09,0-.179,0-.269,0h-6v-8.285A28.044,28.044,0,0,0,176,340V312a8,8,0,0,0,8-8V288a23.946,23.946,0,0,0-8.063-17.924A32.038,32.038,0,0,0,144,240H129.951A58.017,58.017,0,0,0,72,297.951V324a24.028,24.028,0,0,0,24,24v28.146l-22.13.031-.409,0a33.327,33.327,0,0,0-23.933,10.243A102.954,102.954,0,0,1,135,226Zm25,54a8.009,8.009,0,0,1,8,8v8H113.376A24.039,24.039,0,0,1,136,280Zm-24-16a40.068,40.068,0,0,0-39.2,32.021c-.266-.009-.532-.021-.8-.021a23.874,23.874,0,0,0-7.985,1.371A41.993,41.993,0,0,1,129.951,256H144a16.011,16.011,0,0,1,13.853,8ZM88,320a8,8,0,0,1,16,0v4a8,8,0,0,1-16,0Zm24,56V356a33.845,33.845,0,0,0,16,4,8,8,0,0,0,0-16,17.787,17.787,0,0,1-12.9-5.491A23.873,23.873,0,0,0,120,324v-4a23.885,23.885,0,0,0-1.376-8H160v28a12.013,12.013,0,0,1-12,12h-4a8,8,0,0,0-8,8v16H112ZM59.64,399.132a17.384,17.384,0,0,1,14.131-6.956L157.854,392A19.346,19.346,0,0,1,176,410.177v13.3A102.847,102.847,0,0,1,59.64,399.132ZM376,470a10.011,10.011,0,0,1-10,10H146a10.011,10.011,0,0,1-10-10V448H376Zm94-230H424V216h46ZM167,160h38.578l21.984,14.656A8,8,0,0,0,240,168V111a15.017,15.017,0,0,0-15-15H167a15.017,15.017,0,0,0-15,15v34A15.017,15.017,0,0,0,167,160Zm1-48h56v41.052l-11.562-7.708A8.005,8.005,0,0,0,208,144H168Zm64,352a8,8,0,0,1,8-8h32a8,8,0,0,1,0,16H240A8,8,0,0,1,232,464Zm64,0a8,8,0,0,1,8-8h8a8,8,0,0,1,0,16h-8A8,8,0,0,1,296,464Z" style="fill:url(#linear-gradient)"/></g></svg>
