<svg id="Capa_1" enable-background="new 0 0 512 512" height="512" viewBox="0 0 512 512" width="512" xmlns="http://www.w3.org/2000/svg" xmlns:xlink="http://www.w3.org/1999/xlink"><linearGradient id="SVGID_1_" gradientUnits="userSpaceOnUse" x1="256" x2="256" y1="512" y2="0"><stop offset="0" stop-color="#addcff"/><stop offset=".5028" stop-color="#eaf6ff"/><stop offset="1" stop-color="#eaf6ff"/></linearGradient><linearGradient id="SVGID_2_" gradientUnits="userSpaceOnUse" x1="256" x2="256" y1="105" y2="407"><stop offset="0" stop-color="#5558ff"/><stop offset="1" stop-color="#00c0ff"/></linearGradient><g><g><circle cx="256" cy="256" fill="url(#SVGID_1_)" r="256"/></g><g><g><path d="m211.588 264.809c0 4.974-3.908 8.882-8.882 8.882h-28.423c3.375 2.31 6.927 4.085 10.658 5.507v21.14h-44.412c-19.541 0-35.529 15.988-35.529 35.53v71.059h159.882v-106.589h-44.412v-21.14c20.607-7.462 35.53-27.003 35.53-50.097v-35.529c0-29.49-23.805-53.294-53.294-53.294s-53.294 23.804-53.294 53.294v35.529c0 9.771 2.665 19.009 7.461 26.825h45.833c4.975 0 8.882 4.086 8.882 8.883zm186.53 35.603h-115.471v106.588h115.471c4.905 0 8.882-3.977 8.882-8.882v-88.823c0-4.907-3.977-8.883-8.882-8.883zm-53.295 62.178c-4.905 0-8.882-3.977-8.882-8.882 0-4.906 3.977-8.882 8.882-8.882s8.882 3.976 8.882 8.882c.001 4.905-3.976 8.882-8.882 8.882zm-44.411-142.119v-17.765c0-53.875-43.831-97.706-97.706-97.706s-97.706 43.831-97.706 97.706v44.338c0 14.744 11.902 26.647 26.647 26.647h42.636c-7.106-4.264-13.147-10.482-17.41-17.765h-25.226c-4.975 0-8.882-3.909-8.882-8.882v-1.563c2.792.995 5.753 1.636 8.882 1.636.864 0 1.681-.174 2.524-.255-1.511-5.742-2.524-11.646-2.524-17.761v-35.529c0-5.99.968-11.713 2.37-17.274-.794-.072-1.558-.24-2.37-.24-1.404 0-2.754.204-4.101.414 10.92-31.163 40.314-53.708 75.159-53.708s64.24 22.545 75.16 53.708c-1.347-.21-2.697-.414-4.101-.414-.812 0-1.576.168-2.37.24 1.402 5.56 2.37 11.284 2.37 17.274v35.529c0 6.115-1.013 12.019-2.524 17.761.844.081 1.66.255 2.524.255 14.695.001 26.648-11.952 26.648-26.646z" fill="url(#SVGID_2_)"/></g></g></g></svg>