<svg id="Layer_5" enable-background="new 0 0 64 64" height="512" viewBox="0 0 64 64" width="512" xmlns="http://www.w3.org/2000/svg" xmlns:xlink="http://www.w3.org/1999/xlink"><linearGradient id="SVGID_1_" gradientUnits="userSpaceOnUse" x1="32" x2="32" y1="63" y2="1"><stop offset="0" stop-color="#9f2fff"/><stop offset="1" stop-color="#0bb1d3"/></linearGradient><path d="m32.667 7h-.667v-2h.667c5.272 0 10.106 2.882 12.618 7.522l-1.76.952c-2.16-3.994-6.321-6.474-10.858-6.474zm-2.507.056-.193-1.99c-.726.07-1.45.197-2.154.377l.496 1.938c.604-.155 1.227-.264 1.851-.325zm32.84 10.944c0 .973-.492 1.862-1.317 2.378l-8.683 5.426v-4.804h-2.1c-.306 3.31-1.501 6.494-3.451 9.165l1.324 1.324-1.231 2.461c.819 1.403 1.44 2.899 1.852 4.46l2.606.869v7.441l-2.606.869c-.411 1.561-1.032 3.057-1.852 4.46l1.231 2.461-5.263 5.262-2.461-1.23c-1.403.819-2.899 1.44-4.46 1.851l-.868 2.607h-7.441l-.869-2.606c-1.561-.411-3.057-1.032-4.46-1.851l-2.461 1.23-5.263-5.262 1.231-2.461c-.819-1.403-1.44-2.899-1.852-4.46l-2.606-.869v-7.441l2.606-.869c.411-1.561 1.032-3.057 1.852-4.46l-1.231-2.461 1.326-1.326c-2.282-3.12-3.553-6.913-3.553-10.831 0-.781.068-1.559.166-2.333h-2.166v4.804l-8.683-5.426c-.825-.516-1.317-1.405-1.317-2.378s.492-1.862 1.317-2.378l8.683-5.426v4.804h4.012c3.118-6.092 9.448-10 16.321-10h1.334c8.476 0 15.821 5.843 17.799 14h2.534v-4.804l8.683 5.426c.825.516 1.317 1.405 1.317 2.378zm-45.706-7h10.706c2.757 0 5 2.243 5 5v.026c.838-.635 1.87-1.026 3-1.026h12.411c-1.925-7.02-8.356-12-15.744-12h-1.334c-5.775 0-11.118 3.097-14.039 8zm7.706 30c-.552 0-1 .449-1 1s.448 1 1 1h14c.552 0 1-.449 1-1s-.448-1-1-1zm15.062-1.796c1.13.43 1.938 1.517 1.938 2.796 0 .771-.301 1.468-.78 2 .48.532.78 1.229.78 2 0 1.302-.839 2.402-2 2.816v3.103c2.448-2.198 4-5.377 4-8.919 0-2.545-.818-5.017-2.317-7.066-.881.888-1.448 2.037-1.621 3.27zm-20.062 3.796c0 3.542 1.552 6.72 4 8.919v-3.103c-1.161-.414-2-1.514-2-2.816 0-.771.301-1.468.78-2-.48-.532-.78-1.229-.78-2 0-1.279.808-2.366 1.938-2.796-.172-1.232-.739-2.381-1.621-3.27-1.499 2.049-2.317 4.521-2.317 7.066zm19 2h-14c-.552 0-1 .449-1 1s.448 1 1 1h14c.552 0 1-.449 1-1s-.448-1-1-1zm-13 8.376c1.767 1.026 3.813 1.624 6 1.624s4.233-.598 6-1.624v-4.376h-12zm1-38.376c1.103 0 2 .897 2 2v22h2v-19-4c0-1.654-1.346-3-3-3h-19v-3.196l-5.622 3.514c-.236.148-.378.403-.378.682s.142.534.378.682l5.622 3.514v-3.196zm-12 4.333c0 4.592 1.948 8.997 5.347 12.085l3.106 2.825c1.369 1.244 2.237 2.94 2.474 4.758h1.073v-22.001h-11.815c-.111.772-.185 1.551-.185 2.333zm31.173 12.384c-.374.409-.762.806-1.174 1.181l-1.845 1.677c1.837 2.426 2.846 5.378 2.846 8.425 0 7.72-6.28 14-14 14s-14-6.28-14-14c0-3.047 1.009-5.999 2.846-8.425l-1.845-1.677c-.413-.375-.797-.775-1.171-1.183l-.17.17 1.084 2.168-.298.476c-.948 1.514-1.63 3.156-2.026 4.881l-.126.547-2.294.764v4.559l2.294.765.126.547c.396 1.725 1.078 3.367 2.026 4.881l.298.476-1.084 2.168 3.224 3.223 2.167-1.083.477.298c1.514.949 3.156 1.63 4.881 2.026l.548.125.764 2.294h4.559l.765-2.294.548-.125c1.725-.396 3.367-1.078 4.881-2.026l.477-.298 2.167 1.083 3.224-3.223-1.084-2.168.298-.476c.948-1.514 1.63-3.156 2.026-4.881l.126-.547 2.292-.766v-4.559l-2.294-.765-.126-.547c-.396-1.725-1.078-3.367-2.026-4.881l-.298-.476 1.084-2.168zm2.722-10.717h-11.895v18h1.072c.237-1.817 1.105-3.513 2.474-4.758l3.106-2.824c2.966-2.695 4.83-6.447 5.243-10.418zm12.105-3c0-.279-.142-.534-.378-.682l-5.622-3.514v3.196h-19c-1.654 0-3 1.346-3 3v19h2v-18c0-1.103.897-2 2-2h18v3.196l5.622-3.514c.236-.148.378-.403.378-.682z" fill="url(#SVGID_1_)"/></svg>