<svg id="Layer_5" enable-background="new 0 0 64 64" height="512" viewBox="0 0 64 64" width="512" xmlns="http://www.w3.org/2000/svg" xmlns:xlink="http://www.w3.org/1999/xlink"><linearGradient id="SVGID_1_" gradientUnits="userSpaceOnUse" x1="32" x2="32" y1="63" y2="1"><stop offset="0" stop-color="#9f2fff"/><stop offset="1" stop-color="#0bb1d3"/></linearGradient><path d="m14 27v1c0 .551.449 1 1 1h2c1.654 0 3 1.346 3 3v3h-3v2h-2v-2c-1.654 0-3-1.346-3-3h2c0 .551.449 1 1 1h3v-1c0-.551-.449-1-1-1h-2c-1.654 0-3-1.346-3-3v-3h3v-2h2v2c1.654 0 3 1.346 3 3h-2c0-.551-.449-1-1-1zm13 3c0 6.065-4.935 11-11 11s-11-4.935-11-11 4.935-11 11-11 11 4.935 11 11zm-2 0c0-4.962-4.038-9-9-9s-9 4.038-9 9c0 4.963 4.038 9 9 9s9-4.037 9-9zm38-8c0 11.579-9.42 21-21 21-4.922 0-9.627-1.739-13.402-4.887-1.3 2.012-3.065 3.69-5.146 4.887h.548c1.654 0 3 1.346 3 3v2c0 .771-.301 1.468-.78 2 .48.532.78 1.229.78 2v2c0 .475-.121.919-.319 1.319.4-.198.844-.319 1.319-.319h16c1.654 0 3 1.346 3 3v2c0 1.654-1.346 3-3 3h-16c-.771 0-1.468-.301-2-.78-.532.48-1.229.78-2 .78h-16c-1.654 0-3-1.346-3-3v-2c0-.771.301-1.468.78-2-.479-.532-.78-1.229-.78-2v-2c0-.771.301-1.468.78-2-.479-.532-.78-1.229-.78-2v-2c0-1.654 1.346-3 3-3h.549c-4.503-2.591-7.549-7.442-7.549-13 0-8.271 6.729-15 15-15 2.073 0 4.049.423 5.847 1.187 2.572-8.998 10.681-15.187 20.153-15.187 11.58 0 21 9.42 21 21zm-54 31v-2h-1c-.551 0-1 .448-1 1v2c0 .552.449 1 1 1h16c.551 0 1-.448 1-1v-2c0-.552-.449-1-1-1h-1v2h-2v-2h-2v2h-2v-2h-2v2h-2v-2h-2v2zm16 7v-2c0-.552-.449-1-1-1h-1v2h-2v-2h-2v2h-2v-2h-2v2h-2v-2h-2v2h-2v-2h-1c-.551 0-1 .448-1 1v2c0 .552.449 1 1 1h16c.551 0 1-.448 1-1zm2-2v2c0 .552.449 1 1 1h16c.551 0 1-.448 1-1v-2c0-.552-.449-1-1-1h-1v2h-2v-2h-2v2h-2v-2h-2v2h-2v-2h-2v2h-2v-2h-1c-.551 0-1 .448-1 1zm-3-13h-1v2h-2v-2h-2v2h-2v-2h-2v2h-2v-2h-2v2h-2v-2h-1c-.551 0-1 .448-1 1v2c0 .552.449 1 1 1h16c.551 0 1-.448 1-1v-2c0-.552-.449-1-1-1zm5-15c0-7.168-5.832-13-13-13s-13 5.832-13 13 5.832 13 13 13 13-5.832 13-13zm32-8c0-10.477-8.523-19-19-19-8.705 0-16.135 5.778-18.337 14.129 4.385 2.621 7.337 7.402 7.337 12.871 0 2.262-.518 4.401-1.418 6.326 3.463 3.009 7.837 4.674 12.418 4.674 10.477 0 19-8.523 19-19zm-23.25-16.464c-5.194 1.337-9.499 5.109-11.514 10.089l1.854.75c1.779-4.395 5.577-7.723 10.16-8.903zm4.25 1.464v-2c-.711 0-1.426.044-2.124.132l.248 1.984c.617-.077 1.248-.116 1.876-.116zm7.5 27.994 1.002 1.73c5.242-3.032 8.498-8.674 8.498-14.724h-2c0 5.338-2.874 10.317-7.5 12.994zm-3.75 1.533.499 1.938c.722-.187 1.437-.422 2.126-.701l-.751-1.854c-.606.245-1.237.453-1.874.617zm-3.75.473v2c.711 0 1.426-.044 2.124-.132l-.248-1.984c-.617.077-1.248.116-1.876.116zm5-6c-2.206 0-4-1.794-4-4s1.794-4 4-4 4 1.794 4 4-1.794 4-4 4zm0-2c1.103 0 2-.897 2-2s-.897-2-2-2-2 .897-2 2 .897 2 2 2zm-10-16c2.206 0 4 1.794 4 4s-1.794 4-4 4-4-1.794-4-4 1.794-4 4-4zm0 2c-1.103 0-2 .897-2 2s.897 2 2 2 2-.897 2-2-.897-2-2-2zm14.293-3.707-20 20 1.414 1.414 20-20zm7.707 33.707h-14v2h14zm-14 6h14v-2h-14zm10 4v-2h-2v2zm4 0v-2h-2v2zm-8-2h-2v2h2z" fill="url(#SVGID_1_)"/></svg>