<svg id="Capa_1" enable-background="new 0 0 512 512" height="512" viewBox="0 0 512 512" width="512" xmlns="http://www.w3.org/2000/svg"><g><g><path d="m470 176v246h-40v-186z" fill="#aaf9dd"/><path d="m470 76v100c-4.443 6.664-75.557 113.336-80 120l-40-20-40 20c-9.675-4.838-70.261-35.13-80-40h-40l-40-80c-9.677 2.419-70.259 17.565-80 20v-40l40-60 60 40 60-60 40 60v40l60 40 60-60 20-60 40 20z" fill="#ff9256"/><path d="m430 236v186h-40v-126z" fill="#fff2a0"/><path d="m390 296v126h-40v-146z" fill="#aaf9dd"/><path d="m350 276v146h-40v-126z" fill="#fff2a0"/><path d="m310 296v126h-40v-146z" fill="#aaf9dd"/><path d="m270 276v146h-40v-166z" fill="#fff2a0"/><path d="m190 256h40v166h-40z" fill="#aaf9dd"/><path d="m190 256v166h-40v-246z" fill="#fff2a0"/><path d="m150 176v246h-40v-236z" fill="#aaf9dd"/><path d="m110 186v236h-40v-226z" fill="#fff2a0"/></g><g><path d="m489.072 454.929c-3.906-3.905-10.236-3.905-14.143 0-3.905 3.905-3.905 10.237 0 14.143l2.929 2.929h-437.858v-437.858l2.929 2.929c3.905 3.905 10.237 3.905 14.143 0 3.905-3.905 3.905-10.237 0-14.143l-20-20c-3.905-3.905-10.237-3.905-14.143 0l-20 20c-3.905 3.905-3.905 10.237 0 14.143s10.237 3.905 14.143 0l2.928-2.929v77.857h-10c-5.523 0-10 4.477-10 10s4.477 10 10 10h10v40h-10c-5.523 0-10 4.477-10 10s4.477 10 10 10h10v40h-10c-5.523 0-10 4.477-10 10s4.477 10 10 10h10v40h-10c-5.523 0-10 4.477-10 10s4.477 10 10 10h10v40h-10c-5.523 0-10 4.477-10 10s4.477 10 10 10h10v40h-10c-5.523 0-10 4.477-10 10s4.477 10 10 10h10v40h-10c-5.523 0-10 4.477-10 10s4.477 10 10 10h10v10c0 5.523 4.477 10 10 10s10-4.477 10-10v-10h40v10c0 5.523 4.477 10 10 10s10-4.477 10-10v-10h40v10c0 5.523 4.477 10 10 10s10-4.477 10-10v-10h40v10c0 5.523 4.477 10 10 10s10-4.477 10-10v-10h40v10c0 5.523 4.478 10 10 10s10-4.477 10-10v-10h40v10c0 5.523 4.478 10 10 10s10-4.477 10-10v-10h40v10c0 5.523 4.478 10 10 10s10-4.477 10-10v-10h77.857l-2.929 2.929c-3.905 3.905-3.905 10.237 0 14.143 3.906 3.905 10.236 3.905 14.143 0l20-20c3.905-3.905 3.905-10.237 0-14.143z"/><path d="m330 80c5.514 0 10 4.486 10 10s-4.486 10-10 10c-3.175 0-6.092-1.46-8.004-4.006-3.319-4.415-9.587-5.308-14.002-1.99-4.416 3.317-5.307 9.585-1.99 14.001 3.575 4.759 8.489 8.298 13.996 10.255v11.74c0 5.523 4.478 10 10 10s10-4.477 10-10v-11.72c11.639-4.128 20-15.243 20-28.28 0-16.542-13.458-30-30-30-5.514 0-10-4.486-10-10s4.486-10 10-10c3.175 0 6.092 1.46 8.004 4.006 3.318 4.415 9.585 5.307 14.002 1.99 4.416-3.317 5.307-9.585 1.99-14.001-3.575-4.759-8.489-8.298-13.996-10.255v-11.74c0-5.523-4.478-10-10-10s-10 4.477-10 10v11.72c-11.639 4.128-20 15.243-20 28.28 0 16.542 13.458 30 30 30z"/><circle cx="470" cy="306" r="10"/><path d="m60 422c0 5.523 4.477 10 10 10h400c5.522 0 10-4.477 10-10v-70.999c0-5.523-4.478-10-10-10s-10 4.477-10 10v60.999h-20v-172.972l20-30v51.972c0 5.523 4.478 10 10 10s10-4.477 10-10c0-8.39 0-171.197 0-185 0-4.638-3.188-8.667-7.702-9.732-4.518-1.064-9.168 1.113-11.242 5.26l-15.527 31.056-31.057-15.528c-2.594-1.296-5.62-1.404-8.299-.294-2.678 1.109-4.743 3.326-5.66 6.077l-19.253 57.76-52.534 52.534-48.726-32.485v-34.648c0-1.974-.584-3.904-1.68-5.547l-40-60c-1.662-2.493-4.354-4.109-7.335-4.404-2.987-.296-5.938.761-8.057 2.88l-54.203 54.203-53.178-35.452c-4.595-3.063-10.804-1.822-13.867 2.773l-40 60c-1.095 1.643-1.68 3.573-1.68 5.547zm80-10h-20v-218.192l20-5zm40 0h-20v-193.639l20 40zm40 0h-20v-146h20zm40 0h-20v-139.82l20 10zm40 0h-20v-119.82l20 10zm40 0h-20v-109.82l20-10zm40 0h-20v-119.82l20 10zm40 0h-20v-112.972l20-30zm-340-252.972 32.773-49.16 51.68 34.453c3.966 2.645 9.248 2.122 12.618-1.249l51.375-51.375 31.554 47.331v36.972c0 3.344 1.671 6.466 4.453 8.32l60 40c3.965 2.644 9.246 2.122 12.618-1.249l60-60c1.098-1.098 1.925-2.436 2.416-3.909l16.354-49.062 29.688 14.844c4.938 2.469 10.945.467 13.416-4.472l1.056-2.111v54.612c-8.441 12.662-66.046 99.069-73.424 110.135l-32.104-16.052c-2.877-1.439-6.249-1.347-8.943 0l-35.53 17.764-75.528-37.764c-1.26-.632-2.898-1.056-4.472-1.056h-33.82l-37.236-74.472c-.022-.044-.048-.084-.071-.127-2.145-4.129-6.818-6.214-11.299-5.102l-67.574 16.893zm0 44.78 20-5v213.192h-20z"/></g></g></svg>