<svg height="480pt" viewBox="0 0 480 480" width="480pt" xmlns="http://www.w3.org/2000/svg"><path d="m456 224v248h-48v-248zm0 0" fill="#ffca55"/><path d="m408 280v192h-48v-192zm0 0" fill="#ffca55"/><path d="m472 88c0 44.183594-35.816406 80-80 80s-80-35.816406-80-80 35.816406-80 80-80 80 35.816406 80 80zm0 0" fill="#ed8c4a"/><path d="m360 344v128h-48v-128zm0 0" fill="#ffca55"/><path d="m264 400h48v72h-48zm0 0" fill="#ffca55"/><path d="m48 296h-40v-104c0-26.480469 21.519531-48 48-48h144l48-48 24 24-56 64h-72v104l32 184h-48l-32-160v160h-48zm0 0" fill="#64c1e2"/><path d="m144 96c0 26.507812-21.492188 48-48 48s-48-21.492188-48-48 21.492188-48 48-48 48 21.492188 48 48zm0 0" fill="#64c1e2"/><g fill="#0d2c33"><path d="m8 304h32v168c0 4.414062 3.574219 8 8 8h48c4.425781 0 8-3.585938 8-8v-79.207031l16.160156 80.773437c.742188 3.746094 4.023438 6.433594 7.839844 6.433594h48c2.359375 0 4.601562-1.039062 6.128906-2.847656 1.511719-1.808594 2.167969-4.191406 1.757813-6.519532l-31.886719-183.320312v-95.3125h64c2.304688 0 4.496094-1 6.023438-2.726562l56-64c2.777343-3.167969 2.609374-7.953126-.367188-10.929688l-24-24c-3.128906-3.128906-8.183594-3.128906-11.3125 0l-45.65625 45.65625h-61.566406c10.398437-10.175781 16.878906-24.335938 16.878906-40 0-30.878906-25.128906-56-56-56s-56 25.121094-56 56c0 15.664062 6.480469 29.824219 16.886719 40h-.886719c-30.871094 0-56 25.121094-56 56v104c0 4.414062 3.574219 8 8 8zm48-208c0-22.054688 17.945312-40 40-40s40 17.945312 40 40-17.945312 40-40 40-40-17.945312-40-40zm-40 96c0-22.054688 17.945312-40 40-40h144c2.128906 0 4.160156-.839844 5.65625-2.34375l42.34375-42.34375 13.054688 13.046875-48.6875 55.640625h-68.367188c-4.425781 0-8 3.585938-8 8v104c0 .464844.039062.921875.121094 1.367188l30.375 174.632812h-31.9375l-30.71875-153.566406c-.808594-4.035156-4.609375-6.832032-8.632813-6.394532-4.085937.410157-7.207031 3.847657-7.207031 7.960938v152h-32v-272h-16v96h-24zm0 0"/><path d="m464 224c0-4.414062-3.574219-8-8-8h-48c-4.425781 0-8 3.585938-8 8v48h-40c-4.425781 0-8 3.585938-8 8v56h-40c-4.425781 0-8 3.585938-8 8v48h-40c-4.425781 0-8 3.585938-8 8v64h-16v16h240v-16h-16zm-192 184h32v56h-32zm48-8v-48h32v112h-32zm48-56v-56h32v176h-32zm48 120v-232h32v232zm0 0"/><path d="m184 328v16c82.0625 0 149.816406-62.128906 158.886719-141.800781l27.457031 27.457031 11.3125-11.3125-40-40c-3.128906-3.128906-8.183594-3.128906-11.3125 0l-40 40 11.3125 11.3125 24.632812-24.632812c-10.234374 69.449218-70.050781 122.976562-142.289062 122.976562zm0 0"/><path d="m392 176c48.519531 0 88-39.480469 88-88s-39.480469-88-88-88-88 39.480469-88 88 39.480469 88 88 88zm0-160c39.703125 0 72 32.304688 72 72s-32.296875 72-72 72-72-32.304688-72-72 32.296875-72 72-72zm0 0"/><path d="m392 120c-4.414062 0-8-3.59375-8-8h-16c0 10.414062 6.710938 19.214844 16 22.527344v9.472656h16v-9.472656c9.289062-3.3125 16-12.113282 16-22.527344v-8c0-13.230469-10.769531-24-24-24-4.414062 0-8-3.59375-8-8v-8c0-4.40625 3.585938-8 8-8s8 3.59375 8 8h16c0-10.414062-6.710938-19.214844-16-22.527344v-9.472656h-16v9.472656c-9.289062 3.3125-16 12.113282-16 22.527344v8c0 13.230469 10.769531 24 24 24 4.414062 0 8 3.59375 8 8v8c0 4.40625-3.585938 8-8 8zm0 0"/><path d="m88 256h16v-72h8v-16h-32v16h8zm0 0"/><path d="m200 32h16v16h-16zm0 0"/><path d="m232 32h16v16h-16zm0 0"/><path d="m264 32h16v16h-16zm0 0"/></g></svg>