<svg id="Capa_1" enable-background="new 0 0 512 512" height="512" viewBox="0 0 512 512" width="512" xmlns="http://www.w3.org/2000/svg"><g><g><g><g><path d="m228.829 495.903 31.661-24.699c98.703-75.18 156.639-192.136 156.639-316.209v-74.523c0-.053 0-.106 0-.159-.044-7.879-5.815-14.595-13.553-16.079-42.88-8.224-83.683-25.463-119.629-50.754l-11.975-8.425c-9.581-6.741-22.362-6.741-31.942 0l-11.975 8.425c-46.472 32.696-101.056 51.949-157.756 55.645-14.332 0-25.95 11.618-25.95 25.95v74.329c0 120.844 56.428 234.756 152.561 307.979l23.969 18.257z" fill="#eaf2ff"/><g><path d="m441.701 69.125c-16.089-1.049-32.007-3.353-47.618-6.859 9.429 4.466 15.882 14.063 15.882 25.09v72.583c0 120.844-56.428 234.756-152.562 307.979l-34.596 26.351c-.631.48-1.275.932-1.926 1.371l10.628 8.095c14.469 11.021 34.517 11.021 48.985 0l34.597-26.351c96.134-73.223 152.562-187.135 152.562-307.979v-72.583c-.002-14.629-11.355-26.746-25.952-27.697z" fill="#e8e8e8"/></g><path d="m225.588 438.419c-41.403-31.535-75.498-72.854-98.599-119.49-23.102-46.636-35.313-98.795-35.313-150.84v-45.67c0-4.961 3.891-9.025 8.846-9.292 64.439-3.476 131.975-43.35 150.521-55.055 3.033-1.914 6.882-1.914 9.915 0 18.547 11.705 86.082 51.579 150.521 55.055 4.954.267 8.846 4.331 8.846 9.292v45.67c0 52.045-12.211 104.204-35.313 150.84s-57.197 87.954-98.599 119.49l-24.771 18.868c-3.333 2.538-7.95 2.538-11.283 0z" fill="#b3e59f"/></g></g><g><path d="m411.479 113.127c-64.439-3.476-131.975-43.35-150.521-55.055-1.574-.994-3.368-1.46-5.154-1.422v402.524c2.053.043 4.117-.577 5.838-1.888l24.771-18.868c41.402-31.535 75.497-72.854 98.599-119.49s35.313-98.795 35.313-150.84v-45.67c-.001-4.96-3.892-9.023-8.846-9.291z" fill="#95d6a4"/><g><path d="m441.701 69.125c-16.089-1.049-32.007-3.353-47.618-6.859 9.429 4.466 15.882 14.063 15.882 25.09v72.583c0 120.844-56.428 234.756-152.562 307.979l-34.596 26.351c-.631.48-1.275.932-1.926 1.371l10.628 8.095c14.469 11.021 34.517 11.021 48.985 0l34.597-26.351c96.134-73.223 152.562-187.135 152.562-307.979v-72.583c-.002-14.629-11.355-26.746-25.952-27.697z" fill="#c9e0fd"/></g><path d="m385.012 318.929c23.102-46.636 35.313-98.795 35.313-150.84v-45.67c0-4.962-3.891-9.025-8.846-9.292-.504-.027-1.01-.063-1.514-.095v46.907c0 94.348-34.398 184.471-95.233 254.303 28.714-27.374 52.687-59.799 70.28-95.313z" fill="#77ce8e"/></g></g></g></svg>