<svg id="Capa_1" enable-background="new 0 0 511.819 511.819" height="512" viewBox="0 0 511.819 511.819" width="512" xmlns="http://www.w3.org/2000/svg"><g><path d="m480.617 165.453c-13.429-88.623-92.657-165.656-192.686-165.453-110.182.229-195 90.399-195 195.819v25.459l-64 96.445 17.49 17.49c12.7 12.7 28.917 21.182 46.51 24.287v91.318h90v61h105 105v-32.025c0-59.297 19.482-118.843 57.891-176.968 26.557-40.18 37.133-88.959 29.795-137.372z" fill="#91f2e2"/><path d="m392.931 479.794c0-59.297 19.482-118.843 57.891-176.968 26.558-40.181 37.134-88.96 29.795-137.373-13.429-88.622-92.658-165.656-192.686-165.453v511.819h105z" fill="#5ccccc"/><g><path d="m167.933 129.606h29.997v42.426h-29.997z" fill="#ffbe40" transform="matrix(.707 -.707 .707 .707 -53.066 173.526)"/></g><g><path d="m371.718 135.821h42.426v29.997h-42.426z" fill="#ff9f40" transform="matrix(.707 -.707 .707 .707 8.442 322.018)"/></g><g><path d="m152.931 210.819h45v30h-45z" fill="#ffbe40"/></g><g><path d="m377.931 210.819h45v30h-45z" fill="#ff9f40"/></g><path d="m302.931 270.819h-15-15l-30 30v15c0 24.814 20.186 45 45 45s45-20.186 45-45v-15z" fill="#f3f5f9"/><path d="m332.931 315.819v-15l-30-30h-15v90c24.814 0 45-20.185 45-45z" fill="#e1e6f0"/><path d="m287.931 120.819c-41.353 0-75 33.647-75 75 0 16.187 5.127 31.582 14.839 44.517 9.771 13.052 15.161 29.209 15.161 45.483v15h45l45-.117v-15c0-16.436 5.229-32.124 15.132-45.322 9.727-12.949 14.868-28.359 14.868-44.561 0-41.352-33.647-75-75-75z" fill="#ffbe40"/><path d="m332.931 300.702v-15c0-16.436 5.229-32.124 15.132-45.322 9.727-12.949 14.868-28.359 14.868-44.561 0-41.353-33.647-75-75-75v180z" fill="#ff9f40"/></g></svg>