<?xml version="1.0"?>
<svg xmlns="http://www.w3.org/2000/svg" id="Layer_1" data-name="Layer 1" viewBox="0 0 512 512" width="512" height="512"><path d="M58,391.64V327.35C58,314.14,68.88,303,82.1,303h-30C38.88,303,28,314.14,28,327.35v64.29C28,399.8,34.79,406,42.95,406h30C64.79,406,58,399.8,58,391.64Z" style="fill:#d4e1f4"/><path d="M235,391.64V327.35A24.482,24.482,0,0,1,259.15,303h-30A24.482,24.482,0,0,0,205,327.35v64.29c0,8.16,6.84,14.36,14.99,14.36h30C241.84,406,235,399.8,235,391.64Z" style="fill:#d4e1f4"/><path d="M412,391.64V327.35A24.525,24.525,0,0,1,436.2,303h-30A24.525,24.525,0,0,0,382,327.35v64.29c0,8.16,6.89,14.36,15.04,14.36h30C418.89,406,412,399.8,412,391.64Z" style="fill:#d4e1f4"/><path d="M459.9,297H452v-9a20.659,20.659,0,0,0,4.6-3.862,33.019,33.019,0,0,0,9.478-19.545,13.018,13.018,0,0,0,5.57-14.017,11.182,11.182,0,0,0-4.219-6.348l.358-5.161a34.9,34.9,0,1,0-69.716-2.432c0,.87.029,1.674.084,2.432l.354,5.145a11.143,11.143,0,0,0-4.226,6.386,12.981,12.981,0,0,0,5.61,14.018,33.322,33.322,0,0,0,9.717,19.532A16.963,16.963,0,0,0,414,287.685V297h-7.8A30.557,30.557,0,0,0,376,327.35v64.29c0,11.453,9.587,20.36,21.04,20.36h1.48l5.26,87.237A6.111,6.111,0,0,0,409.77,505h47.11a6.109,6.109,0,0,0,5.989-5.763L468.136,412h.914c11.458,0,20.95-8.907,20.95-20.36V327.35C490,310.847,476.4,297,459.9,297Zm-21.856,47.468-4.994,7.708-4.993-7.76L430.9,309H435.2Zm-5.074-130.7a22.671,22.671,0,0,1,16.737,7.272,23.454,23.454,0,0,1,2.057,2.535,17.28,17.28,0,0,0-7.734-2.221l-2.66-.12a6.013,6.013,0,0,0-5.158,2.514,20.449,20.449,0,0,1-18.815,8.464l-4.461-.477a7.129,7.129,0,0,0-2.365.135A22.931,22.931,0,0,1,432.97,213.77Zm-22.635,43.039a5.947,5.947,0,0,0,2.877-.922,6.11,6.11,0,0,0,2.84-4.66l.56-7.032a32.472,32.472,0,0,0,27.259-10.821,5.381,5.381,0,0,1,4.147,2.852l4.131,17.029a5.994,5.994,0,0,0,3.181,3.957,6.025,6.025,0,0,0-1.05,3.368,21.314,21.314,0,0,1-21.31,21.32,20.944,20.944,0,0,1-10.283-2.645A21.3,21.3,0,0,1,411.65,260.54,5.977,5.977,0,0,0,410.335,256.809ZM426,293.064a29.824,29.824,0,0,0,7.235.836,30.481,30.481,0,0,0,6.765-.734V297H426ZM409.326,392H427V493H415.418Zm41.9,101H439V392h18.33ZM478,391.64c0,4.836-4.108,8.36-8.95,8.36h-.189l3.638-59.962a6,6,0,0,0-11.978-.717L458.056,380H408.6l-2.462-40.626a5.938,5.938,0,0,0-6.351-5.556A5.85,5.85,0,0,0,394.161,340l3.634,60h-.755c-4.836,0-9.04-3.524-9.04-8.36V327.35A18.546,18.546,0,0,1,406.2,309h12.659l-2.929,36.558a6.3,6.3,0,0,0,.966,3.881l11.139,17.012a5.991,5.991,0,0,0,10.029.04l11.141-16.954a6.616,6.616,0,0,0,.966-3.982L447.243,309H459.9A18.459,18.459,0,0,1,478,327.35Z" style="fill:#0635c9"/><path d="M282.85,297H275v-9c1-1.145,3.133-2.423,4.569-3.859a32.945,32.945,0,0,0,9.47-19.54,12.711,12.711,0,0,0,2.877-2.538,12.929,12.929,0,0,0,2.682-11.487,11.186,11.186,0,0,0-4.213-6.343l.352-5.166a34.9,34.9,0,1,0-69.717-2.432c0,.861.028,1.665.085,2.432l.353,5.144a11.15,11.15,0,0,0-4.227,6.387,12.988,12.988,0,0,0,5.61,14.018,33.352,33.352,0,0,0,9.731,19.522A17.267,17.267,0,0,0,237,287.688V297h-7.85c-16.5,0-30.15,13.847-30.15,30.35v64.29c0,11.453,9.537,20.36,20.99,20.36h1.479l5.261,87.237A6.111,6.111,0,0,0,232.72,505h47.11a6.109,6.109,0,0,0,5.989-5.763L291.086,412h.924c11.453,0,20.99-8.907,20.99-20.36V327.35C313,310.847,299.354,297,282.85,297Zm-21.857,47.468L256,352.176l-4.993-7.76L253.846,309h4.305Zm-5.073-130.7a22.671,22.671,0,0,1,16.737,7.272,23.4,23.4,0,0,1,2.055,2.532,17.261,17.261,0,0,0-7.723-2.218l-2.67-.12a6,6,0,0,0-5.157,2.514,20.453,20.453,0,0,1-18.814,8.464l-4.462-.477a7.1,7.1,0,0,0-2.365.136A22.933,22.933,0,0,1,255.92,213.77Zm-22.636,43.04a5.948,5.948,0,0,0,2.884-.927A6.1,6.1,0,0,0,239,251.228l.562-7.033a32.458,32.458,0,0,0,27.26-10.822,5.374,5.374,0,0,1,4.146,2.853l4.131,17.028a5.986,5.986,0,0,0,3.181,3.958,6.027,6.027,0,0,0-1.05,3.368,21.315,21.315,0,1,1-42.63-.04A5.975,5.975,0,0,0,233.284,256.81ZM249,293.064a29.824,29.824,0,0,0,7.235.836,30.493,30.493,0,0,0,6.765-.735V297H249ZM232.276,392H250V493H238.368Zm41.906,101H262V392h18.28ZM301,391.64c0,4.836-4.154,8.36-8.99,8.36h-.2l3.637-59.962a6,6,0,0,0-11.978-.717L281.006,380H231.551l-2.462-40.626a5.953,5.953,0,0,0-6.351-5.556A5.851,5.851,0,0,0,217.11,340l3.634,60h-.754c-4.836,0-8.99-3.524-8.99-8.36V327.35A18.5,18.5,0,0,1,229.15,309h12.657l-2.927,36.559a6.3,6.3,0,0,0,.966,3.88l11.139,17.012a5.992,5.992,0,0,0,10.03.04l11.139-16.954a6.6,6.6,0,0,0,.966-3.982L270.193,309H282.85A18.5,18.5,0,0,1,301,327.35Z" style="fill:#0635c9"/><path d="M105.8,297H98v-9c1-1.145,3.11-2.425,4.547-3.862A32.982,32.982,0,0,0,112,264.6a12.948,12.948,0,0,0,5.555-14,11.213,11.213,0,0,0-4.222-6.332l.354-5.2A34.9,34.9,0,1,0,43.97,236.64c0,.861.028,1.665.085,2.432l.353,5.144a11.143,11.143,0,0,0-4.226,6.387A12.979,12.979,0,0,0,45.8,264.625a33.4,33.4,0,0,0,9.757,19.518A17.283,17.283,0,0,0,60,287.68V297H52.1C35.6,297,22,310.847,22,327.35v64.29C22,403.093,31.492,412,42.95,412h1.469l5.262,87.237A6.109,6.109,0,0,0,55.67,505h47.12a6.109,6.109,0,0,0,5.989-5.763L114.041,412h.919c11.453,0,21.04-8.907,21.04-20.36V327.35A30.557,30.557,0,0,0,105.8,297ZM83.943,344.468l-4.993,7.708-4.994-7.76L76.8,309H81.1ZM78.87,213.77a22.668,22.668,0,0,1,16.736,7.272,23.392,23.392,0,0,1,2.055,2.531,17.265,17.265,0,0,0-7.722-2.217l-2.669-.12a6,6,0,0,0-5.158,2.514A20.448,20.448,0,0,1,63.3,232.214l-4.462-.477a7.1,7.1,0,0,0-2.365.136A22.933,22.933,0,0,1,78.87,213.77ZM56.244,256.81a5.946,5.946,0,0,0,2.874-.928,6.1,6.1,0,0,0,2.833-4.655l.561-7.032a32.451,32.451,0,0,0,27.26-10.822,5.372,5.372,0,0,1,4.146,2.853l4.131,17.028a5.992,5.992,0,0,0,3.18,3.958,6.024,6.024,0,0,0-1.049,3.368,21.31,21.31,0,1,1-42.62-.04A5.975,5.975,0,0,0,56.244,256.81ZM72,293.062a29.734,29.734,0,0,0,7.235.838A38.436,38.436,0,0,0,86,293.166V297H72ZM55.227,392H73V493H61.318ZM97.142,493H85V392h18.233ZM124,391.64c0,4.836-4.2,8.36-9.04,8.36h-.194l3.633-59.964a6,6,0,0,0-11.978-.714L103.959,380H54.5l-2.463-40.626a5.954,5.954,0,0,0-6.351-5.556A5.849,5.849,0,0,0,40.061,340l3.633,60H42.95c-4.842,0-8.95-3.524-8.95-8.36V327.35A18.459,18.459,0,0,1,52.1,309H64.757l-2.928,36.558a6.312,6.312,0,0,0,.966,3.881l11.141,17.012a5.991,5.991,0,0,0,10.029.04L95.1,349.537a6.6,6.6,0,0,0,.966-3.982L93.143,309H105.8A18.546,18.546,0,0,1,124,327.35Z" style="fill:#0635c9"/><path d="M256,143.98a6,6,0,0,0-6,6V159H86.76C77.017,159,69,166.5,69,176.24v11.19a6,6,0,0,0,12,0V176.24c0-3.126,2.634-5.24,5.76-5.24H250v16.43a6,6,0,0,0,12,0V171H421.35c3.126,0,5.65,2.114,5.65,5.24v11.19a6,6,0,1,0,12,0V176.24A17.311,17.311,0,0,0,421.35,159H262v-9.02A6,6,0,0,0,256,143.98Z" style="fill:#0635c9"/><path d="M310.48,33H289V24.51C289,14.767,280.773,7,271.03,7H240.97C231.227,7,223,14.767,223,24.51V33H201.52C189.626,33,180,43.122,180,55.01v64.72A21.3,21.3,0,0,0,201.52,141H310.48A21.3,21.3,0,0,0,332,119.73V55.01C332,43.122,322.374,33,310.48,33ZM235,24.51A5.807,5.807,0,0,1,240.97,19h30.06A5.807,5.807,0,0,1,277,24.51V33H235Zm-43,95.22V55.01c0-5.271,4.243-10.01,9.52-10.01H203V62.043a6,6,0,1,0,12,0V45h82v84H215V83.073a6,6,0,1,0-12,0V129h-1.48A9.286,9.286,0,0,1,192,119.73Zm128,0a9.286,9.286,0,0,1-9.52,9.27H309V45h1.48c5.277,0,9.52,4.739,9.52,10.01Z" style="fill:#1ae5be"/></svg>
